<svg width="24" height="25" viewBox="0 0 24 25" fill="none" xmlns="http://www.w3.org/2000/svg">
<path d="M5 14.5713C4.73478 14.5713 4.48043 14.6766 4.29289 14.8642C4.10536 15.0517 4 15.3061 4 15.5713V19.5713C4 19.8365 4.10536 20.0909 4.29289 20.2784C4.48043 20.4659 4.73478 20.5713 5 20.5713H19C19.2652 20.5713 19.5196 20.4659 19.7071 20.2784C19.8946 20.0909 20 19.8365 20 19.5713V15.5713C20 15.3061 19.8946 15.0517 19.7071 14.8642C19.5196 14.6766 19.2652 14.5713 19 14.5713H5ZM5 12.5713C4.20435 12.5713 3.44129 12.2552 2.87868 11.6926C2.31607 11.13 2 10.3669 2 9.57129V5.57129C2 4.77564 2.31607 4.01258 2.87868 3.44997C3.44129 2.88736 4.20435 2.57129 5 2.57129H19C19.7956 2.57129 20.5587 2.88736 21.1213 3.44997C21.6839 4.01258 22 4.77564 22 5.57129V9.57129C22 10.3669 21.6839 11.13 21.1213 11.6926C20.5587 12.2552 19.7956 12.5713 19 12.5713C19.7956 12.5713 20.5587 12.8874 21.1213 13.45C21.6839 14.0126 22 14.7756 22 15.5713V19.5713C22 20.3669 21.6839 21.13 21.1213 21.6926C20.5587 22.2552 19.7956 22.5713 19 22.5713H5C4.20435 22.5713 3.44129 22.2552 2.87868 21.6926C2.31607 21.13 2 20.3669 2 19.5713V15.5713C2 14.7756 2.31607 14.0126 2.87868 13.45C3.44129 12.8874 4.20435 12.5713 5 12.5713ZM5 4.57129C4.73478 4.57129 4.48043 4.67665 4.29289 4.86418C4.10536 5.05172 4 5.30607 4 5.57129V9.57129C4 9.83651 4.10536 10.0909 4.29289 10.2784C4.48043 10.4659 4.73478 10.5713 5 10.5713H19C19.2652 10.5713 19.5196 10.4659 19.7071 10.2784C19.8946 10.0909 20 9.83651 20 9.57129V5.57129C20 5.30607 19.8946 5.05172 19.7071 4.86418C19.5196 4.67665 19.2652 4.57129 19 4.57129H5ZM7 8.57129C6.73478 8.57129 6.48043 8.46593 6.29289 8.2784C6.10536 8.09086 6 7.83651 6 7.57129C6 7.30607 6.10536 7.05172 6.29289 6.86418C6.48043 6.67665 6.73478 6.57129 7 6.57129C7.26522 6.57129 7.51957 6.67665 7.70711 6.86418C7.89464 7.05172 8 7.30607 8 7.57129C8 7.83651 7.89464 8.09086 7.70711 8.2784C7.51957 8.46593 7.26522 8.57129 7 8.57129ZM10 8.57129C9.73478 8.57129 9.48043 8.46593 9.29289 8.2784C9.10536 8.09086 9 7.83651 9 7.57129C9 7.30607 9.10536 7.05172 9.29289 6.86418C9.48043 6.67665 9.73478 6.57129 10 6.57129C10.2652 6.57129 10.5196 6.67665 10.7071 6.86418C10.8946 7.05172 11 7.30607 11 7.57129C11 7.83651 10.8946 8.09086 10.7071 8.2784C10.5196 8.46593 10.2652 8.57129 10 8.57129ZM10 18.5713C9.73478 18.5713 9.48043 18.4659 9.29289 18.2784C9.10536 18.0909 9 17.8365 9 17.5713C9 17.3061 9.10536 17.0517 9.29289 16.8642C9.48043 16.6766 9.73478 16.5713 10 16.5713C10.2652 16.5713 10.5196 16.6766 10.7071 16.8642C10.8946 17.0517 11 17.3061 11 17.5713C11 17.8365 10.8946 18.0909 10.7071 18.2784C10.5196 18.4659 10.2652 18.5713 10 18.5713ZM7 18.5713C6.73478 18.5713 6.48043 18.4659 6.29289 18.2784C6.10536 18.0909 6 17.8365 6 17.5713C6 17.3061 6.10536 17.0517 6.29289 16.8642C6.48043 16.6766 6.73478 16.5713 7 16.5713C7.26522 16.5713 7.51957 16.6766 7.70711 16.8642C7.89464 17.0517 8 17.3061 8 17.5713C8 17.8365 7.89464 18.0909 7.70711 18.2784C7.51957 18.4659 7.26522 18.5713 7 18.5713Z" fill="#545454"/>
</svg>
