<svg width="124" height="124" viewBox="0 0 124 124" fill="none" xmlns="http://www.w3.org/2000/svg">
<g opacity="0.5">
<path d="M23.25 62.6455C19.6334 62.6455 16.5764 61.3969 14.0792 58.8997C11.582 56.4025 10.3334 53.3455 10.3334 49.7288C10.3334 46.1122 11.582 43.0552 14.0792 40.558C16.5764 38.0608 19.6334 36.8122 23.25 36.8122C26.8667 36.8122 29.9237 38.0608 32.4209 40.558C34.9181 43.0552 36.1667 46.1122 36.1667 49.7288C36.1667 53.3455 34.9181 56.4025 32.4209 58.8997C29.9237 61.3969 26.8667 62.6455 23.25 62.6455ZM46.5 41.9788C42.8834 41.9788 39.8264 40.7302 37.3292 38.233C34.832 35.7358 33.5834 32.6788 33.5834 29.0622C33.5834 25.4455 34.832 22.3886 37.3292 19.8913C39.8264 17.3941 42.8834 16.1455 46.5 16.1455C50.1167 16.1455 53.1737 17.3941 55.6709 19.8913C58.1681 22.3886 59.4167 25.4455 59.4167 29.0622C59.4167 32.6788 58.1681 35.7358 55.6709 38.233C53.1737 40.7302 50.1167 41.9788 46.5 41.9788ZM77.5 41.9788C73.8834 41.9788 70.8264 40.7302 68.3292 38.233C65.832 35.7358 64.5834 32.6788 64.5834 29.0622C64.5834 25.4455 65.832 22.3886 68.3292 19.8913C70.8264 17.3941 73.8834 16.1455 77.5 16.1455C81.1167 16.1455 84.1737 17.3941 86.6709 19.8913C89.1681 22.3886 90.4167 25.4455 90.4167 29.0622C90.4167 32.6788 89.1681 35.7358 86.6709 38.233C84.1737 40.7302 81.1167 41.9788 77.5 41.9788ZM100.75 62.6455C97.1334 62.6455 94.0764 61.3969 91.5792 58.8997C89.082 56.4025 87.8334 53.3455 87.8334 49.7288C87.8334 46.1122 89.082 43.0552 91.5792 40.558C94.0764 38.0608 97.1334 36.8122 100.75 36.8122C104.367 36.8122 107.424 38.0608 109.921 40.558C112.418 43.0552 113.667 46.1122 113.667 49.7288C113.667 53.3455 112.418 56.4025 109.921 58.8997C107.424 61.3969 104.367 62.6455 100.75 62.6455ZM34.3584 114.312C30.4834 114.312 27.2335 112.826 24.6089 109.853C21.9808 106.884 20.6667 103.376 20.6667 99.3288C20.6667 94.8511 22.196 90.933 25.2547 87.5747C28.3099 84.2163 31.3445 80.9011 34.3584 77.6288C36.8556 74.9594 39.0084 72.0523 40.8167 68.9075C42.625 65.7662 44.7778 62.8177 47.275 60.0622C49.1695 57.8233 51.3653 55.9719 53.8625 54.508C56.3598 53.0441 59.0723 52.3122 62 52.3122C64.9278 52.3122 67.6403 53.0011 70.1375 54.3788C72.6348 55.7566 74.8306 57.5649 76.725 59.8038C79.1362 62.5594 81.2665 65.5302 83.1162 68.7163C84.9693 71.9025 87.1445 74.8733 89.6417 77.6288C92.6556 80.9011 95.6919 84.2163 98.7505 87.5747C101.806 90.933 103.333 94.8511 103.333 99.3288C103.333 103.376 102.021 106.884 99.3964 109.853C96.7683 112.826 93.5167 114.312 89.6417 114.312C84.9917 114.312 80.3848 113.925 75.8209 113.15C71.257 112.375 66.65 111.987 62 111.987C57.35 111.987 52.7431 112.375 48.1792 113.15C43.6153 113.925 39.0084 114.312 34.3584 114.312Z" fill="#F8F8F8"/>
</g>
</svg>
