<svg width="124" height="124" viewBox="0 0 124 124" fill="none" xmlns="http://www.w3.org/2000/svg">
<g opacity="0.5">
<path d="M61.9999 10.333C55.215 10.333 48.4964 11.6694 42.2279 14.2659C35.9595 16.8624 30.2638 20.6681 25.4661 25.4658C15.7767 35.1552 10.3333 48.2968 10.3333 61.9997C10.3333 75.7025 15.7767 88.8441 25.4661 98.5335C30.2638 103.331 35.9595 107.137 42.2279 109.733C48.4964 112.33 55.215 113.666 61.9999 113.666C75.7028 113.666 88.8444 108.223 98.5338 98.5335C108.223 88.8441 113.667 75.7025 113.667 61.9997C113.667 55.2147 112.33 48.4962 109.734 42.2277C107.137 35.9592 103.331 30.2635 98.5338 25.4658C93.7361 20.6681 88.0404 16.8624 81.7719 14.2659C75.5034 11.6694 68.7849 10.333 61.9999 10.333ZM61.9999 43.348C70.3365 48.7642 80.0618 51.6531 90.0033 51.6663C94.0333 51.6663 97.9083 51.2013 101.628 50.323C102.713 53.9913 103.333 57.918 103.333 61.9997C103.333 84.7847 84.7849 103.333 61.9999 103.333C46.4999 103.333 33.0149 94.7563 25.8333 82.098L34.8749 72.333V67.1663C34.8749 65.4535 35.5553 63.8108 36.7665 62.5996C37.9777 61.3884 39.6204 60.708 41.3333 60.708C43.0461 60.708 44.6888 61.3884 45.9 62.5996C47.1112 63.8108 47.7916 65.4535 47.7916 67.1663V72.333H61.9999M82.6666 60.708C80.9537 60.708 79.311 61.3884 78.0999 62.5996C76.8887 63.8108 76.2083 65.4535 76.2083 67.1663C76.2083 68.8792 76.8887 70.5219 78.0999 71.7331C79.311 72.9442 80.9537 73.6247 82.6666 73.6247C84.3794 73.6247 86.0222 72.9442 87.2333 71.7331C88.4445 70.5219 89.1249 68.8792 89.1249 67.1663C89.1249 65.4535 88.4445 63.8108 87.2333 62.5996C86.0222 61.3884 84.3794 60.708 82.6666 60.708Z" fill="#F8F8F8"/>
</g>
</svg>
