<svg width="24" height="25" viewBox="0 0 24 25" fill="none" xmlns="http://www.w3.org/2000/svg">
<path d="M14.25 15.8926H9.75C9.15326 15.8926 8.58097 16.1296 8.15901 16.5516C7.73705 16.9735 7.5 17.5458 7.5 18.1426V19.6426H9V18.1426C9 17.9437 9.07902 17.7529 9.21967 17.6122C9.36032 17.4716 9.55109 17.3926 9.75 17.3926H14.25C14.4489 17.3926 14.6397 17.4716 14.7803 17.6122C14.921 17.7529 15 17.9437 15 18.1426V19.6426H16.5V18.1426C16.5 17.5458 16.2629 16.9735 15.841 16.5516C15.419 16.1296 14.8467 15.8926 14.25 15.8926ZM12 15.1426C12.5933 15.1426 13.1734 14.9666 13.6667 14.637C14.1601 14.3073 14.5446 13.8388 14.7716 13.2906C14.9987 12.7425 15.0581 12.1393 14.9424 11.5573C14.8266 10.9754 14.5409 10.4408 14.1213 10.0213C13.7018 9.6017 13.1672 9.31598 12.5853 9.20022C12.0033 9.08447 11.4001 9.14388 10.8519 9.37094C10.3038 9.598 9.83524 9.98252 9.50559 10.4759C9.17595 10.9692 9 11.5492 9 12.1426C9 12.9382 9.31607 13.7013 9.87868 14.2639C10.4413 14.8265 11.2044 15.1426 12 15.1426ZM12 10.6426C12.2967 10.6426 12.5867 10.7306 12.8334 10.8954C13.08 11.0602 13.2723 11.2945 13.3858 11.5686C13.4994 11.8426 13.5291 12.1442 13.4712 12.4352C13.4133 12.7262 13.2704 12.9935 13.0607 13.2032C12.8509 13.413 12.5836 13.5559 12.2926 13.6138C12.0017 13.6716 11.7001 13.6419 11.426 13.5284C11.1519 13.4149 10.9176 13.2226 10.7528 12.9759C10.588 12.7293 10.5 12.4393 10.5 12.1426C10.5 11.7448 10.658 11.3632 10.9393 11.0819C11.2206 10.8006 11.6022 10.6426 12 10.6426V10.6426Z" fill="#545454"/>
<path d="M18.75 3.89258H16.5V3.14258C16.5 2.74475 16.342 2.36322 16.0607 2.08192C15.7794 1.80061 15.3978 1.64258 15 1.64258H9C8.60218 1.64258 8.22064 1.80061 7.93934 2.08192C7.65804 2.36322 7.5 2.74475 7.5 3.14258V3.89258H5.25C4.85218 3.89258 4.47064 4.05061 4.18934 4.33192C3.90804 4.61322 3.75 4.99475 3.75 5.39258V21.1426C3.75 21.5404 3.90804 21.9219 4.18934 22.2032C4.47064 22.4845 4.85218 22.6426 5.25 22.6426H18.75C19.1478 22.6426 19.5294 22.4845 19.8107 22.2032C20.092 21.9219 20.25 21.5404 20.25 21.1426V5.39258C20.25 4.99475 20.092 4.61322 19.8107 4.33192C19.5294 4.05061 19.1478 3.89258 18.75 3.89258V3.89258ZM9 3.14258H15V6.14258H9V3.14258ZM18.75 21.1426H5.25V5.39258H7.5V7.64258H16.5V5.39258H18.75V21.1426Z" fill="#545454"/>
</svg>
