<svg width="30" height="30" viewBox="0 0 30 30" fill="none" xmlns="http://www.w3.org/2000/svg">
<path fill-rule="evenodd" clip-rule="evenodd" d="M20.4062 18.6234L27.1312 25.3484C27.3676 25.585 27.5003 25.9057 27.5002 26.2401C27.5001 26.5745 27.3671 26.8952 27.1306 27.1316C26.894 27.3679 26.5733 27.5007 26.2389 27.5005C25.9045 27.5004 25.5838 27.3675 25.3475 27.1309L18.6225 20.4059C16.6121 21.963 14.0841 22.6958 11.5526 22.4551C9.02117 22.2145 6.67649 21.0185 4.99556 19.1104C3.31462 17.2024 2.42369 14.7257 2.50402 12.1841C2.58435 9.64253 3.62989 7.22701 5.42796 5.42894C7.22603 3.63087 9.64155 2.58532 12.1831 2.505C14.7247 2.42467 17.2014 3.3156 19.1095 4.99653C21.0175 6.67747 22.2135 9.02215 22.4541 11.5536C22.6948 14.085 21.962 16.6131 20.405 18.6234H20.4062ZM12.5 19.9997C14.4891 19.9997 16.3967 19.2095 17.8033 17.803C19.2098 16.3965 20 14.4888 20 12.4997C20 10.5106 19.2098 8.6029 17.8033 7.19638C16.3967 5.78986 14.4891 4.99968 12.5 4.99968C10.5108 4.99968 8.60318 5.78986 7.19665 7.19638C5.79013 8.6029 4.99995 10.5106 4.99995 12.4997C4.99995 14.4888 5.79013 16.3965 7.19665 17.803C8.60318 19.2095 10.5108 19.9997 12.5 19.9997Z" fill="#9E9E9E"/>
</svg>
